<?xml version="1.0" standalone="no"?>
<!DOCTYPE svg PUBLIC "-//W3C//DTD SVG 20010904//EN"
 "http://www.w3.org/TR/2001/REC-SVG-20010904/DTD/svg10.dtd">
<svg version="1.0" xmlns="http://www.w3.org/2000/svg"
 width="1536.000000pt" height="1536.000000pt" viewBox="0 0 1536.000000 1536.000000"
 preserveAspectRatio="xMidYMid meet">
<metadata>
Created by potrace 1.14, written by Peter Selinger 2001-2017
</metadata>
<g transform="translate(0.000000,1536.000000) scale(0.100000,-0.100000)"
fill="#000000" stroke="none">
<path d="M0 7680 l0 -7680 7680 0 7680 0 0 7680 0 7680 -7680 0 -7680 0 0
-7680z m9953 3123 c963 -964 1169 -1174 1177 -1205 7 -24 9 -991 8 -2815 l-3
-2778 -23 -75 c-72 -233 -252 -422 -484 -508 l-73 -27 -2875 0 -2875 0 -73 27
c-235 87 -417 280 -484 513 l-23 80 0 3665 0 3665 23 80 c58 200 210 381 398
475 146 73 -4 68 2174 69 l1965 1 1168 -1167z"/>
<path d="M5070 7680 l0 -3460 2613 2 2612 3 3 2483 2 2482 -950 0 c-714 0
-956 3 -975 12 -57 26 -55 -14 -55 1003 l0 935 -1625 0 -1625 0 0 -3460z
m4397 317 c210 -209 233 -236 233 -265 0 -19 -5 -43 -11 -55 -16 -31 -2408
-2425 -2441 -2443 -15 -8 -42 -14 -60 -14 -30 0 -95 62 -805 773 l-773 772 0
45 0 45 233 232 232 233 45 0 45 0 515 -515 515 -515 970 970 970 970 50 0 50
0 232 -233z"/>
</g>
</svg>
